<svg width="16" height="16" viewBox="0 0 16 16" fill="none" xmlns="http://www.w3.org/2000/svg">
<path d="M1.62211 1.62211C0.61361 2.70583 0.0371483 4.12151 0.00173402 5.60146C-0.0336803 7.08141 0.474407 8.52304 1.42992 9.65376C2.38543 10.7845 3.72214 11.5259 5.18727 11.7378C6.6524 11.9497 8.14439 11.6174 9.38113 10.8038L14.5773 16L16 14.5773L10.8038 9.38113C11.6174 8.14439 11.9497 6.6524 11.7378 5.18727C11.5259 3.72214 10.7845 2.38543 9.65376 1.42992C8.52304 0.474407 7.08141 -0.0336803 5.60146 0.00173402C4.12151 0.0371483 2.70583 0.61361 1.62211 1.62211ZM8.73538 8.73538C8.17191 9.30222 7.45283 9.68898 6.66929 9.84666C5.88575 10.0043 5.07303 9.92581 4.33417 9.62105C3.59531 9.31629 2.96357 8.79902 2.51904 8.1348C2.0745 7.47057 1.8372 6.68932 1.8372 5.89007C1.8372 5.09083 2.0745 4.30957 2.51904 3.64535C2.96357 2.98113 3.59531 2.46386 4.33417 2.1591C5.07303 1.85434 5.88575 1.77582 6.66929 1.93349C7.45283 2.09117 8.17191 2.47793 8.73538 3.04477C9.48707 3.80094 9.90899 4.82385 9.90899 5.89007C9.90899 6.9563 9.48707 7.97921 8.73538 8.73538Z" fill="#543005"/>
</svg>
