<svg width="33" height="29" viewBox="0 0 33 29" fill="none" xmlns="http://www.w3.org/2000/svg">
<path d="M6.89778 1.61001C6.89778 1.61001 7.11118 2.95741 7.4134 4.79491H30.5245L32.0445 1.61001H6.89778Z" fill="#543005"/>
<path d="M9.17338 15.5224H25.6356L29.7867 6.23879H7.65342C8.2312 9.80879 8.97783 14.8487 9.17338 15.5224Z" fill="#543005"/>
<path d="M4.69333 0H0V2.07375H2.92444L5.90222 19.1537H28.4V17.08H7.68L4.69333 0Z" fill="#543005"/>
<path d="M9.52879 20.5189C8.77597 20.5171 8.0395 20.7352 7.41269 21.1456C6.78588 21.5561 6.29706 22.1403 6.00774 22.8245C5.71843 23.5087 5.64168 24.2619 5.78747 24.9889C5.93326 25.716 6.29505 26.3841 6.82675 26.9088C7.35846 27.4334 8.03622 27.7909 8.77445 27.9361C9.51268 28.0813 10.278 28.0078 10.9737 27.7246C11.6694 27.4414 12.2642 26.9613 12.6827 26.3452C13.1011 25.7292 13.3244 25.0047 13.3244 24.2637C13.3244 23.272 12.9248 22.3209 12.2133 21.6188C11.5017 20.9167 10.5363 20.5212 9.52879 20.5189ZM9.52879 25.7689C9.22917 25.7706 8.93577 25.6845 8.68591 25.5217C8.43605 25.3589 8.24105 25.1267 8.12558 24.8546C8.01011 24.5824 7.97945 24.2826 8.03747 23.9932C8.0955 23.7039 8.23967 23.4381 8.45154 23.2295C8.6634 23.021 8.93341 22.879 9.22736 22.8219C9.52131 22.7648 9.82588 22.795 10.1024 22.9087C10.3788 23.0223 10.6147 23.2143 10.7801 23.4602C10.9455 23.7062 11.0327 23.995 11.031 24.2899C11.0217 24.6769 10.8598 25.045 10.5794 25.3162C10.2989 25.5874 9.92194 25.7404 9.52879 25.7426V25.7689Z" fill="#543005"/>
<path d="M24.3999 20.5189C23.6471 20.5171 22.9106 20.7352 22.2838 21.1456C21.657 21.5561 21.1681 22.1403 20.8788 22.8245C20.5895 23.5087 20.5128 24.2619 20.6586 24.9889C20.8044 25.716 21.1661 26.3841 21.6978 26.9088C22.2296 27.4334 22.9073 27.7909 23.6455 27.9361C24.3838 28.0813 25.1493 28.0078 25.845 27.7246C26.5407 27.4414 27.1353 26.9613 27.5537 26.3452C27.9722 25.7292 28.1955 25.0047 28.1955 24.2637C28.1955 23.272 27.7959 22.3209 27.0843 21.6188C26.3728 20.9167 25.4073 20.5212 24.3999 20.5189ZM24.3999 25.7689C24.1006 25.7689 23.8081 25.6813 23.5594 25.5174C23.3107 25.3536 23.1171 25.1207 23.003 24.8484C22.8889 24.576 22.8595 24.2767 22.9185 23.9879C22.9776 23.6991 23.1223 23.434 23.3346 23.2263C23.5468 23.0186 23.8169 22.8777 24.1106 22.8213C24.4043 22.7649 24.7083 22.7956 24.9843 22.9095C25.2603 23.0234 25.4958 23.2155 25.6607 23.4613C25.8257 23.7071 25.9127 23.9954 25.911 24.2899C25.9017 24.6784 25.7385 25.0478 25.4561 25.3192C25.1737 25.5906 24.7946 25.7427 24.3999 25.7426V25.7689Z" fill="#543005"/>
</svg>
