<svg width="96" height="86" viewBox="0 0 96 86" fill="none" xmlns="http://www.w3.org/2000/svg">
<path d="M20.6646 4.89988C20.6646 4.89988 21.3039 9.00056 22.2093 14.5928H91.4464L96 4.89988H20.6646Z" fill="#EFEDED"/>
<path d="M27.482 47.2408H76.8001L89.236 18.9871H22.9284C24.6593 29.852 26.8961 45.1903 27.482 47.2408Z" fill="#EFEDED"/>
<path d="M14.0605 0H0V6.31123H8.76116L17.6821 58.2923H85.0817V51.9811H23.008L14.0605 0Z" fill="#EFEDED"/>
<path d="M28.5467 62.4469C26.2914 62.4416 24.085 63.1052 22.2072 64.3544C20.3294 65.6035 18.8649 67.3817 17.9982 69.4638C17.1315 71.546 16.9016 73.8384 17.3383 76.051C17.7751 78.2637 18.8589 80.2972 20.4518 81.8938C22.0447 83.4904 24.0752 84.5784 26.2868 85.0203C28.4984 85.4623 30.7911 85.2385 32.8753 84.3767C34.9595 83.5148 36.7416 82.0536 37.9952 80.1787C39.2487 78.3039 39.9176 76.0991 39.9176 73.8438C39.9176 70.8256 38.7206 67.9311 36.5889 65.7944C34.4572 63.6578 31.5649 62.4539 28.5467 62.4469ZM28.5467 78.4247C27.6491 78.4299 26.7701 78.1679 26.0216 77.6725C25.273 77.1771 24.6888 76.4704 24.3429 75.6421C23.997 74.8138 23.9051 73.9014 24.079 73.0207C24.2528 72.1401 24.6847 71.3312 25.3194 70.6965C25.9541 70.0618 26.763 69.6298 27.6437 69.456C28.5243 69.2822 29.4367 69.374 30.265 69.72C31.0933 70.0659 31.8 70.6501 32.2954 71.3986C32.7908 72.1472 33.0522 73.0262 33.047 73.9238C33.0193 75.1013 32.5343 76.2217 31.694 77.047C30.8537 77.8724 29.7245 78.3381 28.5467 78.3447V78.4247Z" fill="#EFEDED"/>
<path d="M73.0981 62.4469C70.8427 62.4416 68.6364 63.1052 66.7586 64.3544C64.8808 65.6035 63.4163 67.3817 62.5496 69.4638C61.6828 71.546 61.4529 73.8384 61.8897 76.051C62.3264 78.2637 63.4103 80.2972 65.0032 81.8938C66.5961 83.4904 68.6266 84.5784 70.8382 85.0203C73.0498 85.4623 75.3432 85.2385 77.4273 84.3767C79.5115 83.5148 81.293 82.0536 82.5465 80.1787C83.8001 78.3039 84.469 76.0991 84.469 73.8438C84.469 70.8256 83.272 67.9311 81.1403 65.7944C79.0086 63.6578 76.1162 62.4539 73.0981 62.4469ZM73.0981 78.4247C72.2016 78.4247 71.3251 78.1581 70.5801 77.6595C69.835 77.1608 69.255 76.452 68.9131 75.6232C68.5713 74.7945 68.4834 73.8834 68.6602 73.0045C68.8371 72.1256 69.2707 71.3188 69.9065 70.6867C70.5423 70.0547 71.3515 69.6257 72.2314 69.4541C73.1113 69.2824 74.0222 69.3758 74.8489 69.7226C75.6756 70.0693 76.3811 70.6539 76.8754 71.4019C77.3696 72.1498 77.6302 73.0273 77.625 73.9238C77.5972 75.1059 77.1083 76.23 76.2623 77.0561C75.4163 77.8822 74.2805 78.345 73.0981 78.3447V78.4247Z" fill="#EFEDED"/>
</svg>
