<svg width="150" height="54" viewBox="0 0 150 54" fill="none" xmlns="http://www.w3.org/2000/svg">
<path fill-rule="evenodd" clip-rule="evenodd" d="M2 0C0.895431 0 0 0.895429 0 2V52C0 53.1046 0.89543 54 2 54H132.831C133.936 54 134.831 53.1046 134.831 52V35.7685L150 27L134.831 18.2314V2C134.831 0.895431 133.936 0 132.831 0H2Z" fill="#CACACA"/>
<path d="M30.4572 31.8058C30.4572 33.1452 30.1596 34.3144 29.5643 35.3137C28.969 36.3129 28.0655 37.0888 26.8537 37.6416C25.6631 38.1731 24.1537 38.4388 22.3254 38.4388C21.475 38.4388 20.6884 38.3857 19.9655 38.2794C19.2427 38.1731 18.5624 38.0243 17.9246 37.8329C17.2868 37.6203 16.649 37.3652 16.0112 37.0676V32.5712C17.0955 33.0389 18.201 33.4747 19.3277 33.8786C20.4758 34.2613 21.56 34.4526 22.5805 34.4526C23.2395 34.4526 23.771 34.3463 24.175 34.1337C24.5789 33.9211 24.8765 33.6341 25.0679 33.2727C25.2592 32.9113 25.3549 32.4967 25.3549 32.029C25.3549 31.455 25.1954 30.966 24.8765 30.5621C24.5789 30.1582 24.1324 29.7861 23.5372 29.446C22.9419 29.0846 22.2084 28.7231 21.3368 28.3617C20.699 28.0854 20.0718 27.7665 19.4553 27.405C18.8388 27.0436 18.286 26.6078 17.797 26.0976C17.3081 25.5661 16.9148 24.9283 16.6171 24.1842C16.3408 23.4401 16.2026 22.5472 16.2026 21.5055C16.2026 20.1449 16.5215 18.9862 17.1593 18.0295C17.797 17.0516 18.69 16.3075 19.838 15.7972C20.986 15.287 22.3254 15.0319 23.8561 15.0319C25.1104 15.0319 26.269 15.1701 27.332 15.4465C28.4163 15.7228 29.4474 16.1161 30.4253 16.6264L28.799 20.3893C27.8635 19.9641 26.9706 19.6346 26.1202 19.4008C25.2911 19.1669 24.4832 19.05 23.6966 19.05C23.1651 19.05 22.7187 19.1456 22.3573 19.337C21.9958 19.5283 21.7195 19.7941 21.5281 20.1342C21.358 20.4744 21.273 20.8783 21.273 21.346C21.273 21.8775 21.4112 22.3346 21.6876 22.7173C21.9852 23.0787 22.4423 23.4401 23.0588 23.8015C23.6754 24.1417 24.462 24.5562 25.4187 25.0452C26.4816 25.5767 27.3852 26.1401 28.1293 26.7354C28.8946 27.3094 29.4686 28.0003 29.8513 28.8082C30.2552 29.6161 30.4572 30.6153 30.4572 31.8058Z" fill="white"/>
<path d="M54.4157 26.7035C54.4157 28.468 54.2138 30.0731 53.8098 31.5188C53.4059 32.9432 52.7894 34.1763 51.9602 35.218C51.1311 36.2597 50.0575 37.057 48.7394 37.6097C47.4426 38.1625 45.9012 38.4388 44.1154 38.4388C42.3509 38.4388 40.8202 38.1625 39.5233 37.6097C38.2265 37.0357 37.1529 36.2385 36.3025 35.218C35.4733 34.1763 34.8462 32.9326 34.421 31.4869C34.017 30.0412 33.8151 28.4361 33.8151 26.6716C33.8151 24.3118 34.1765 22.2602 34.8993 20.5169C35.6434 18.7736 36.7808 17.4236 38.3115 16.4669C39.8422 15.489 41.7875 15 44.1473 15C46.5284 15 48.4737 15.489 49.9831 16.4669C51.4925 17.4236 52.6087 18.7842 53.3315 20.5488C54.0543 22.2921 54.4157 24.3436 54.4157 26.7035ZM39.2363 26.7035C39.2363 28.298 39.3958 29.6692 39.7146 30.8172C40.0548 31.9653 40.5863 32.8475 41.3091 33.4641C42.032 34.0806 42.9674 34.3889 44.1154 34.3889C45.2847 34.3889 46.2201 34.0806 46.9217 33.4641C47.6445 32.8475 48.1654 31.9653 48.4843 30.8172C48.8244 29.6692 48.9945 28.298 48.9945 26.7035C48.9945 24.3011 48.6118 22.4196 47.8465 21.059C47.1024 19.6984 45.8693 19.0181 44.1473 19.0181C42.978 19.0181 42.032 19.3264 41.3091 19.9429C40.5863 20.5594 40.0548 21.4417 39.7146 22.5897C39.3958 23.7377 39.2363 25.109 39.2363 26.7035Z" fill="white"/>
<path d="M65.5459 15.3508C67.4806 15.3508 69.0857 15.6059 70.3613 16.1161C71.6369 16.6051 72.5829 17.3598 73.1994 18.3803C73.8372 19.3795 74.1561 20.6445 74.1561 22.1752C74.1561 23.2169 73.9861 24.131 73.6459 24.9177C73.327 25.683 72.8805 26.3421 72.3065 26.8948C71.7325 27.4263 71.0841 27.8621 70.3613 28.2023L76.6116 38.1199H70.8396L66.0243 29.3822H64.079V38.1199H58.9129V15.3508H65.5459ZM65.3227 19.3051H64.079V25.4598H65.3546C66.1412 25.4598 66.8003 25.3428 67.3318 25.109C67.8633 24.8751 68.2672 24.5244 68.5436 24.0566C68.8199 23.5677 68.9581 22.983 68.9581 22.3027C68.9581 21.5799 68.8306 21.0059 68.5755 20.5807C68.3203 20.1342 67.927 19.8153 67.3955 19.624C66.8641 19.4114 66.1731 19.3051 65.3227 19.3051Z" fill="white"/>
<path d="M86.527 15.3508C88.4617 15.3508 90.0668 15.6059 91.3424 16.1161C92.618 16.6051 93.564 17.3598 94.1805 18.3803C94.8183 19.3795 95.1372 20.6445 95.1372 22.1752C95.1372 23.2169 94.9671 24.131 94.627 24.9177C94.3081 25.683 93.8616 26.3421 93.2876 26.8948C92.7136 27.4263 92.0652 27.8621 91.3424 28.2023L97.5927 38.1199H91.8207L87.0054 29.3822H85.0601V38.1199H79.894V15.3508H86.527ZM86.3038 19.3051H85.0601V25.4598H86.3357C87.1223 25.4598 87.7814 25.3428 88.3129 25.109C88.8444 24.8751 89.2483 24.5244 89.5247 24.0566C89.801 23.5677 89.9392 22.983 89.9392 22.3027C89.9392 21.5799 89.8117 21.0059 89.5565 20.5807C89.3014 20.1342 88.9081 19.8153 88.3766 19.624C87.8451 19.4114 87.1542 19.3051 86.3038 19.3051Z" fill="white"/>
<path d="M107.381 24.7263L111.462 15.3508H117.011L109.932 29.2546V38.1199H104.798V29.4141L97.718 15.3508H103.331L107.381 24.7263Z" fill="white"/>
</svg>
