<svg width="96" height="96" viewBox="0 0 96 96" fill="none" xmlns="http://www.w3.org/2000/svg">
<path d="M48 0C38.5065 0 29.2262 2.81515 21.3326 8.08946C13.4391 13.3638 7.28681 20.8603 3.6538 29.6312C0.0207968 38.402 -0.929762 48.0532 0.922328 57.3643C2.77442 66.6754 7.34598 75.2282 14.0589 81.9411C20.7718 88.654 29.3246 93.2256 38.6357 95.0777C47.9468 96.9298 57.598 95.9792 66.3688 92.3462C75.1397 88.7132 82.6362 82.5609 87.9105 74.6674C93.1849 66.7738 96 57.4935 96 48C96 41.6965 94.7584 35.4548 92.3462 29.6312C89.934 23.8076 86.3983 18.5161 81.9411 14.0589C77.4839 9.60166 72.1924 6.06601 66.3688 3.65378C60.5452 1.24156 54.3035 0 48 0V0ZM17.9394 54.1285C17.4873 54.1016 17.0622 53.9047 16.7492 53.5774C16.4363 53.25 16.2587 52.8164 16.2521 52.3636C16.2604 51.9292 16.4378 51.5152 16.7467 51.2097L25.5418 42.4145L16.7467 33.6194C16.5917 33.4675 16.4683 33.2865 16.3834 33.0869C16.2985 32.8872 16.2539 32.6727 16.2521 32.4558C16.2443 32.1233 16.3349 31.796 16.5124 31.5149C16.69 31.2338 16.9467 31.0114 17.2503 30.8757C17.5538 30.7399 17.8907 30.6969 18.2186 30.7521C18.5465 30.8072 18.8509 30.9579 19.0934 31.1854L27.937 40.0194L36.7321 31.2242C36.8825 31.07 37.0619 30.9469 37.2599 30.8621C37.4579 30.7772 37.6707 30.7322 37.8861 30.7297C38.3402 30.7441 38.7719 30.9303 39.0941 31.2507C39.4163 31.571 39.6049 32.0017 39.6218 32.4558C39.6204 32.6737 39.575 32.889 39.4884 33.089C39.4017 33.2889 39.2756 33.4693 39.1176 33.6194L30.3224 42.4145L39.1176 51.2097C39.2753 51.3579 39.4013 51.5366 39.488 51.735C39.5747 51.9333 39.6202 52.1472 39.6218 52.3636C39.605 52.8186 39.4167 53.2504 39.0948 53.5723C38.7728 53.8943 38.3411 54.0826 37.8861 54.0994C37.67 54.0956 37.4568 54.0491 37.2587 53.9625C37.0607 53.876 36.8817 53.7511 36.7321 53.5951L27.937 44.8L19.1418 53.5951C18.9943 53.7584 18.815 53.89 18.6149 53.9817C18.4149 54.0734 18.1982 54.1233 17.9782 54.1285H17.9394ZM71.4667 69.1103C71.147 69.4277 70.7147 69.6058 70.2642 69.6058C69.8137 69.6058 69.3815 69.4277 69.0618 69.1103C69.0618 69.1103 63.874 64.5042 47.2727 67.1709C30.6715 69.8376 27.1806 75.7818 27.1515 75.8982C27.0026 76.1661 26.7847 76.3892 26.5204 76.5444C26.2561 76.6995 25.955 76.7811 25.6485 76.7806C25.3745 76.783 25.1044 76.7163 24.863 76.5867C24.4712 76.3818 24.1755 76.0312 24.0395 75.6105C23.9035 75.1898 23.938 74.7325 24.1358 74.337C24.5237 73.5709 28.4315 66.7927 46.7297 63.8642C65.0279 60.9357 70.8655 66.1721 71.4667 66.7733C71.7692 67.0848 71.9417 67.4999 71.9489 67.9341C71.9561 68.3683 71.7975 68.7889 71.5055 69.1103H71.4667ZM78.1576 51.2388C78.4772 51.5283 78.6691 51.9329 78.6909 52.3636C78.6765 52.8177 78.4903 53.2495 78.1699 53.5716C77.8496 53.8938 77.4189 54.0824 76.9649 54.0994C76.5259 54.09 76.1082 53.909 75.8012 53.5951L67.0061 44.8L58.2109 53.5951C58.0634 53.7538 57.8848 53.8804 57.6863 53.9671C57.4878 54.0539 57.2736 54.0989 57.057 54.0994C56.602 54.0826 56.1702 53.8943 55.8483 53.5723C55.5263 53.2504 55.3381 52.8186 55.3212 52.3636C55.325 52.1475 55.3715 51.9343 55.4581 51.7363C55.5446 51.5382 55.6695 51.3593 55.8255 51.2097L64.6206 42.4145L55.8255 33.6194C55.6674 33.4693 55.5413 33.2889 55.4547 33.089C55.368 32.889 55.3227 32.6737 55.3212 32.4558C55.3448 32.004 55.5355 31.5771 55.8563 31.2581C56.1771 30.9391 56.6051 30.7507 57.057 30.7297C57.4667 30.7507 57.8569 30.9116 58.1624 31.1854L67.0061 40.0194L75.8012 31.2242C75.9531 31.0693 76.1341 30.9458 76.3337 30.861C76.5334 30.7761 76.7479 30.7315 76.9649 30.7297C77.4173 30.7465 77.8466 30.9338 78.1667 31.2539C78.4868 31.574 78.6741 32.0033 78.6909 32.4558C78.6913 32.673 78.6477 32.8882 78.5627 33.0882C78.4777 33.2881 78.3531 33.4688 78.1964 33.6194L69.4012 42.4145L78.1576 51.2388Z" fill="#CACACA"/>
</svg>
