<svg width="48" height="48" viewBox="0 0 48 48" fill="none" xmlns="http://www.w3.org/2000/svg">
<circle cx="24" cy="24" r="24" fill="#CACACA"/>
<path d="M24.0024 21.8952C25.0474 21.8958 26.0822 21.6908 27.0478 21.2917C28.0135 20.8927 28.891 20.3077 29.6302 19.5698C30.3693 18.832 30.9556 17.9558 31.3556 16.9915C31.7556 16.0273 31.9616 14.9938 31.9616 13.95C31.9616 11.8415 31.123 9.81942 29.6304 8.32851C28.1377 6.83761 26.1133 6 24.0024 6C22.9568 5.99938 21.9213 6.20456 20.9551 6.6038C19.9889 7.00305 19.1109 7.58849 18.3713 8.32678C17.6317 9.06506 17.0451 9.94171 16.6448 10.9066C16.2445 11.8714 16.0384 12.9056 16.0384 13.95C16.0391 14.994 16.2455 16.0276 16.6461 16.9919C17.0466 17.9562 17.6335 18.8323 18.373 19.57C19.1125 20.3078 19.9902 20.8929 20.9561 21.2919C21.922 21.6908 22.9572 21.8958 24.0024 21.8952Z" fill="#F7F7F7"/>
<path d="M15.1272 33.2773L17.5287 42H30.4713L32.8728 33.2773C33.0921 31.9871 33.0272 30.6646 32.6828 29.4019C32.3383 28.1392 31.7225 26.9666 30.8782 25.9658C30.0339 24.965 28.9814 24.16 27.7939 23.6068C26.6065 23.0537 25.3126 22.7657 24.0024 22.7628C22.6917 22.765 21.3973 23.0525 20.2092 23.6053C19.0212 24.1582 17.9682 24.9632 17.1233 25.964C16.2785 26.9649 15.6622 28.1377 15.3175 29.4007C14.9727 30.6638 14.9079 31.9867 15.1272 33.2773Z" fill="#F7F7F7"/>
</svg>
